<svg width="32" height="32" viewBox="0 0 32 32" fill="none" xmlns="http://www.w3.org/2000/svg">
<path fill-rule="evenodd" clip-rule="evenodd" d="M2.6 5C2.04772 5 1.6 5.44772 1.6 6V9.8L0 11.4L1.6 13V16.8C1.6 17.3523 2.04772 17.8 2.6 17.8H18.2C18.7523 17.8 19.2 17.3523 19.2 16.8V6C19.2 5.44772 18.7523 5 18.2 5H2.6Z" fill="#ECEBE8"/>
<path fill-rule="evenodd" clip-rule="evenodd" d="M29.4 27.4C29.9523 27.4 30.4 26.9523 30.4 26.4V22.6L32 21L30.4 19.4V15.6C30.4 15.0477 29.9523 14.6 29.4 14.6H13.8C13.2477 14.6 12.8 15.0477 12.8 15.6V26.4C12.8 26.9523 13.2477 27.4 13.8 27.4H29.4Z" fill="#F48120"/>
<rect x="4.7998" y="8.20001" width="11.2" height="1.6" rx="0.8" fill="#F48120"/>
<rect x="4.7998" y="13" width="6.4" height="1.6" rx="0.8" fill="#F48120"/>
<rect x="22.3999" y="6.60001" width="4.8" height="1.6" rx="0.8" fill="#F48120"/>
<rect x="25.6001" y="6.60001" width="1.6" height="6.4" rx="0.8" fill="#F48120"/>
<path fill-rule="evenodd" clip-rule="evenodd" d="M24.2343 10.0343C24.5467 9.72188 25.0533 9.72188 25.3657 10.0343L26.4 11.0686L27.4343 10.0343C27.7467 9.72188 28.2533 9.72188 28.5657 10.0343C28.8781 10.3467 28.8781 10.8533 28.5657 11.1657L26.9657 12.7657C26.6533 13.0781 26.1467 13.0781 25.8343 12.7657L24.2343 11.1657C23.9219 10.8533 23.9219 10.3467 24.2343 10.0343Z" fill="#F48120"/>
<path fill-rule="evenodd" clip-rule="evenodd" d="M17.9762 19.5216C18.3509 19.2874 18.8444 19.4013 19.0786 19.776L20.4002 21.8906L21.7218 19.776C21.956 19.4013 22.4495 19.2874 22.8242 19.5216C23.1989 19.7558 23.3128 20.2493 23.0786 20.624L21.0786 23.824C20.9324 24.0579 20.676 24.2 20.4002 24.2C20.1244 24.2 19.868 24.0579 19.7218 23.824L17.7218 20.624C17.4876 20.2493 17.6015 19.7558 17.9762 19.5216Z" fill="#ECEBE8"/>
<rect x="24" y="19.4" width="1.6" height="4.8" rx="0.8" fill="#ECEBE8"/>
<rect x="24" y="17" width="1.6" height="1.6" rx="0.8" fill="#ECEBE8"/>
</svg>
