<svg width="32" height="32" viewBox="0 0 32 32" fill="none" xmlns="http://www.w3.org/2000/svg">
<path fill-rule="evenodd" clip-rule="evenodd" d="M25.6 12.8C25.6 11.0327 24.1674 9.6 22.4 9.6L3.2 9.6C1.43262 9.6 1.13072e-06 11.0327 1.20797e-06 12.8L1.76747e-06 25.6C1.84472e-06 27.3673 1.43262 28.8 3.2 28.8L22.4 28.8C24.1674 28.8 25.6 27.3673 25.6 25.6L25.6 12.8ZM22.4 25.6L22.4 12.8L3.2 12.8L3.2 25.6L22.4 25.6Z" fill="#F48120"/>
<path d="M28.8 3.2C30.5674 3.2 32 4.63269 32 6.4L32 19.2C32 20.9673 30.5674 22.4 28.8 22.4L22.4 22.4L22.4 19.2L28.8 19.2L28.8 6.4L9.6 6.4L9.6 12.8L6.4 12.8L6.4 6.4C6.4 4.63269 7.83262 3.2 9.6 3.2L28.8 3.2Z" fill="#F48120"/>
<path d="M16.8 18.4H13.6V15.2C13.6 14.72 13.28 14.4 12.8 14.4C12.32 14.4 12 14.72 12 15.2V18.4H8.8C8.32 18.4 8 18.72 8 19.2C8 19.68 8.32 20 8.8 20H12V23.2C12 23.68 12.32 24 12.8 24C13.28 24 13.6 23.68 13.6 23.2V20H16.8C17.28 20 17.6 19.68 17.6 19.2C17.6 18.72 17.28 18.4 16.8 18.4Z" fill="#F48120"/>
</svg>
