<svg width="32" height="32" viewBox="0 0 32 32" fill="none" xmlns="http://www.w3.org/2000/svg">
<path d="M10.9007 5.2603C10.3073 5.85427 10.3073 6.64623 10.9007 7.2402L13.4718 9.81407L4.80039 9.8C3.98848 9.8 3.40039 10.4169 3.40039 11.2C3.40039 11.992 4.00925 12.6 4.80039 12.6L13.4719 12.5859L10.9007 15.1598C10.3073 15.7538 10.3073 16.5457 10.9007 17.1397C11.494 17.7337 12.2851 17.7337 12.8785 17.1397L17.8231 12.1899C18.0951 11.9177 18.1939 11.5818 18.1939 11.2C18.1939 10.8182 18.0951 10.4823 17.8231 10.2101L12.8785 5.2603C12.2851 4.66633 11.494 4.66633 10.9007 5.2603Z" fill="#F48120"/>
<path fill-rule="evenodd" clip-rule="evenodd" d="M7.80009 4.2H10.7953C11.2795 3.36311 12.1843 2.8 13.2207 2.8H18.8091C20.3555 2.8 21.6091 4.05354 21.6091 5.6L21.6092 19.6H10.4208V18.2H7.62363V22.4C7.62363 25.4927 10.1308 28 13.2236 28H18.8062C21.899 28 24.4062 25.4927 24.4062 22.4V5.6C24.4062 2.50725 21.899 0 18.8062 0H13.2236C10.6143 0 8.42173 1.78469 7.80009 4.2ZM16.015 25.2C15.2426 25.2 14.6165 24.5731 14.6165 23.8C14.6165 23.0269 15.2426 22.4 16.015 22.4C16.7874 22.4 17.4135 23.0269 17.4135 23.8C17.4135 24.5731 16.7874 25.2 16.015 25.2Z" fill="#F48120"/>
</svg>
